<?xml version="1.0" encoding="UTF-8"?><svg xmlns="http://www.w3.org/2000/svg" xmlns:xlink="http://www.w3.org/1999/xlink" contentScriptType="text/ecmascript" width="375" zoomAndPan="magnify" contentStyleType="text/css" viewBox="0 0 375 374.999991" height="374.999991" preserveAspectRatio="xMidYMid meet" version="1.0"><defs><clipPath id="clip-0"><path d="M 91 228 L 140 228 L 140 276.59375 L 91 276.59375 Z M 91 228 " clip-rule="nonzero"/></clipPath><clipPath id="clip-1"><path d="M 234 228 L 283 228 L 283 276.59375 L 234 276.59375 Z M 234 228 " clip-rule="nonzero"/></clipPath><clipPath id="clip-2"><path d="M 147 98.09375 L 223 98.09375 L 223 114 L 147 114 Z M 147 98.09375 " clip-rule="nonzero"/></clipPath><clipPath id="clip-3"><path d="M 214 98.09375 L 221 98.09375 L 221 142 L 214 142 Z M 214 98.09375 " clip-rule="nonzero"/></clipPath><clipPath id="clip-4"><path d="M 149 98.09375 L 156 98.09375 L 156 142 L 149 142 Z M 149 98.09375 " clip-rule="nonzero"/></clipPath></defs><g clip-path="url(#clip-0)"><path fill="rgb(0%, 0%, 0%)" d="M 115.792969 228.375 C 129.132812 228.375 139.964844 239.179688 139.964844 252.484375 C 139.964844 265.789062 129.132812 276.59375 115.792969 276.59375 C 102.453125 276.59375 91.621094 265.789062 91.621094 252.484375 C 91.621094 239.179688 102.453125 228.375 115.792969 228.375 Z M 115.792969 228.375 " fill-opacity="1" fill-rule="evenodd"/></g><path fill="rgb(100%, 100%, 100%)" d="M 115.792969 233.792969 C 126.136719 233.792969 134.535156 242.167969 134.535156 252.484375 C 134.535156 262.800781 126.136719 271.179688 115.792969 271.179688 C 105.449219 271.179688 97.050781 262.800781 97.050781 252.484375 C 97.050781 242.167969 105.449219 233.792969 115.792969 233.792969 Z M 115.792969 233.792969 " fill-opacity="1" fill-rule="evenodd"/><path fill="rgb(0%, 0%, 0%)" d="M 115.792969 240.839844 C 122.238281 240.839844 127.46875 246.058594 127.46875 252.484375 C 127.46875 258.914062 122.238281 264.132812 115.792969 264.132812 C 109.347656 264.132812 104.117188 258.914062 104.117188 252.484375 C 104.117188 246.058594 109.347656 240.839844 115.792969 240.839844 Z M 115.792969 240.839844 " fill-opacity="1" fill-rule="evenodd"/><g clip-path="url(#clip-1)"><path fill="rgb(0%, 0%, 0%)" d="M 258.71875 228.375 C 272.058594 228.375 282.890625 239.179688 282.890625 252.484375 C 282.890625 265.789062 272.058594 276.59375 258.71875 276.59375 C 245.378906 276.59375 234.546875 265.789062 234.546875 252.484375 C 234.546875 239.179688 245.378906 228.375 258.71875 228.375 Z M 258.71875 228.375 " fill-opacity="1" fill-rule="evenodd"/></g><path fill="rgb(100%, 100%, 100%)" d="M 258.71875 233.792969 C 269.0625 233.792969 277.460938 242.167969 277.460938 252.484375 C 277.460938 262.800781 269.0625 271.179688 258.71875 271.179688 C 248.375 271.179688 239.976562 262.800781 239.976562 252.484375 C 239.976562 242.167969 248.375 233.792969 258.71875 233.792969 Z M 258.71875 233.792969 " fill-opacity="1" fill-rule="evenodd"/><path fill="rgb(0%, 0%, 0%)" d="M 258.71875 240.839844 C 265.164062 240.839844 270.394531 246.058594 270.394531 252.484375 C 270.394531 258.914062 265.164062 264.132812 258.71875 264.132812 C 252.273438 264.132812 247.042969 258.914062 247.042969 252.484375 C 247.042969 246.058594 252.273438 240.839844 258.71875 240.839844 Z M 258.71875 240.839844 " fill-opacity="1" fill-rule="evenodd"/><path fill="rgb(100%, 34.118652%, 32.939148%)" d="M 60.996094 184.773438 L 263.667969 184.773438 C 270.609375 184.773438 277.480469 186.109375 283.914062 188.707031 L 314.164062 200.925781 L 314.164062 255.0625 L 286.285156 255.0625 C 284.488281 254.222656 283.015625 252.757812 282.1875 250.871094 C 279.757812 245.320312 276.15625 237.101562 276.15625 237.101562 C 275.160156 234.816406 272.898438 233.34375 270.398438 233.34375 C 264.46875 233.34375 253.578125 233.34375 247.648438 233.34375 C 245.152344 233.34375 242.890625 234.816406 241.894531 237.101562 C 241.894531 237.101562 238.292969 245.320312 235.859375 250.871094 C 235.082031 252.65625 233.71875 254.066406 232.050781 254.921875 C 231.882812 255.015625 231.675781 255.0625 231.476562 255.0625 C 227.316406 255.066406 142.1875 255.066406 142.1875 255.066406 C 140.335938 254.214844 138.8125 252.707031 137.964844 250.769531 C 135.535156 245.222656 131.980469 237.109375 131.980469 237.109375 C 130.980469 234.824219 128.71875 233.347656 126.222656 233.347656 C 120.292969 233.347656 109.402344 233.347656 103.472656 233.347656 C 100.976562 233.347656 98.714844 234.824219 97.714844 237.109375 C 97.714844 237.109375 94.164062 245.222656 91.730469 250.769531 C 90.882812 252.710938 89.363281 254.214844 87.507812 255.066406 L 60.988281 255.066406 L 60.988281 185.625 C 60.988281 185.339844 60.992188 185.058594 60.996094 184.777344 Z M 60.996094 184.773438 " fill-opacity="1" fill-rule="evenodd"/><path fill="rgb(0%, 0%, 0%)" d="M 59.890625 232.6875 C 60.082031 232.207031 60.546875 231.878906 61.070312 231.84375 C 61.589844 231.820312 62.085938 232.082031 62.347656 232.523438 C 63.945312 234.8125 67.28125 238.117188 73.371094 239.355469 C 76.042969 239.921875 78.128906 242.007812 78.695312 244.675781 C 79.25 247.199219 79.40625 250.414062 78.183594 253.550781 C 77.394531 255.601562 75.414062 256.945312 73.214844 256.933594 C 70.511719 257.03125 66.453125 257.007812 63.398438 257.007812 C 60.796875 256.992188 58.570312 255.136719 58.097656 252.585938 C 57.277344 248.019531 56.765625 240.46875 59.890625 232.691406 Z M 59.890625 232.6875 " fill-opacity="1" fill-rule="evenodd"/><path fill="rgb(0%, 0%, 0%)" d="M 315.335938 233.878906 C 315.144531 233.394531 314.679688 233.074219 314.15625 233.035156 C 313.636719 233.011719 313.144531 233.273438 312.878906 233.714844 C 311.285156 236 307.945312 239.304688 301.855469 240.546875 C 299.183594 241.113281 297.097656 243.199219 296.53125 245.867188 C 295.980469 248.390625 295.820312 251.605469 297.039062 254.742188 C 297.832031 256.789062 299.8125 258.136719 302.011719 258.125 C 304.71875 258.222656 308.777344 258.195312 311.828125 258.195312 C 314.429688 258.183594 316.65625 256.328125 317.128906 253.777344 C 317.949219 249.210938 318.460938 241.660156 315.335938 233.882812 Z M 315.335938 233.878906 " fill-opacity="1" fill-rule="evenodd"/><path fill="rgb(100%, 100%, 100%)" d="M 314.164062 200.925781 L 283.914062 188.707031 C 277.480469 186.109375 270.609375 184.773438 263.667969 184.773438 L 60.996094 184.773438 C 61.140625 178.753906 62.808594 172.863281 65.851562 167.65625 C 72.011719 157.269531 79.878906 147.65625 89.132812 138.667969 C 96.320312 131.632812 105.988281 127.691406 116.058594 127.691406 C 142.902344 127.667969 236.65625 127.667969 259.085938 127.667969 C 266.15625 127.667969 273.011719 130.097656 278.496094 134.546875 C 293.300781 147.167969 311.054688 169.378906 314.164062 179.1875 Z M 60.988281 185.277344 L 60.988281 185.347656 Z M 60.992188 185 L 60.992188 185.09375 Z M 60.992188 185 " fill-opacity="1" fill-rule="evenodd"/><path fill="rgb(0%, 0%, 0%)" d="M 238.375 150.695312 C 236.652344 151.042969 235.332031 152.421875 235.058594 154.152344 C 233.929688 161.648438 233.980469 169.140625 235.226562 176.636719 C 235.542969 178.453125 237.015625 179.851562 238.851562 180.078125 C 253.542969 181.828125 268.0625 181.472656 282.484375 180.007812 C 284.277344 179.816406 285.75 178.519531 286.152344 176.769531 C 286.929688 172.980469 286.964844 168.921875 285.703125 164.398438 C 285.558594 163.859375 285.296875 163.359375 284.949219 162.921875 C 280.792969 157.695312 275.890625 153.496094 269.492188 151.347656 C 269.441406 151.324219 269.371094 151.300781 269.324219 151.300781 C 259.007812 148.339844 248.691406 148.667969 238.378906 150.710938 Z M 238.375 150.695312 " fill-opacity="1" fill-rule="evenodd"/><path fill="rgb(0%, 0%, 0%)" d="M 225.542969 153.5 C 225.296875 152.203125 224.304688 151.175781 223.015625 150.878906 C 212.976562 148.640625 165.355469 148.652344 154.523438 150.867188 C 153.109375 151.160156 152.042969 152.332031 151.886719 153.765625 C 151.027344 161.886719 151.058594 169.703125 151.871094 177.257812 C 152.039062 178.714844 153.136719 179.894531 154.582031 180.160156 C 164.96875 182.019531 212.53125 182.042969 222.914062 180.136719 C 224.257812 179.886719 225.308594 178.835938 225.570312 177.496094 C 227.03125 169.648438 227.054688 161.65625 225.542969 153.507812 Z M 225.542969 153.5 " fill-opacity="1" fill-rule="evenodd"/><path fill="rgb(0%, 0%, 0%)" d="M 280.960938 136.714844 C 292.09375 146.761719 304.300781 161.375 310.511719 171.707031 C 310.511719 171.707031 308.921875 171.898438 307.21875 172.078125 C 304.710938 172.359375 302.253906 171.238281 300.832031 169.160156 C 294.867188 160.753906 285.996094 149.992188 282.28125 145.542969 C 281.164062 144.210938 280.605469 142.503906 280.710938 140.769531 C 280.832031 138.890625 280.960938 136.714844 280.960938 136.714844 Z M 280.960938 136.714844 " fill-opacity="1" fill-rule="evenodd"/><path fill="rgb(0%, 0%, 0%)" d="M 86.023438 141.765625 C 94.6875 141.695312 106.003906 141.574219 118.546875 141.496094 C 122.851562 141.46875 127.296875 141.445312 131.832031 141.421875 C 138.355469 141.398438 145.054688 141.375 151.765625 141.375 C 156.207031 141.375 160.652344 141.386719 165.054688 141.398438 C 171.867188 141.421875 215.753906 141.46875 222.164062 141.542969 C 245.777344 141.734375 265.4375 141.980469 271.996094 142.046875 C 272.683594 142.054688 273.355469 141.878906 273.941406 141.578125 C 274.535156 141.261719 275.050781 140.800781 275.429688 140.226562 L 277.78125 136.648438 C 277.832031 136.578125 277.902344 136.578125 277.972656 136.601562 C 278.046875 136.648438 278.046875 136.722656 278.019531 136.792969 L 275.753906 140.421875 C 275.351562 141.066406 274.796875 141.585938 274.152344 141.949219 C 273.507812 142.3125 272.769531 142.511719 272 142.523438 C 265.441406 142.59375 245.785156 142.828125 222.171875 143.027344 C 215.757812 143.074219 171.871094 143.121094 165.058594 143.171875 C 160.660156 143.191406 156.214844 143.195312 151.769531 143.195312 C 145.0625 143.195312 138.359375 143.171875 131.839844 143.144531 C 127.304688 143.125 122.855469 143.097656 118.550781 143.074219 C 105.527344 142.980469 93.828125 142.882812 85.042969 142.792969 C 85.367188 142.457031 85.695312 142.117188 86.027344 141.777344 Z M 86.023438 141.765625 " fill-opacity="1" fill-rule="evenodd"/><path fill="rgb(0%, 0%, 0%)" d="M 76.582031 159.496094 C 76.582031 159.496094 77.804688 159.765625 79.417969 160.015625 C 80.019531 160.113281 80.660156 160.207031 81.3125 160.257812 C 81.960938 160.304688 82.613281 160.304688 83.214844 160.328125 C 84.816406 160.351562 86.070312 160.3125 86.070312 160.3125 C 86.5 160.328125 86.859375 159.996094 86.878906 159.566406 C 86.894531 159.140625 86.558594 158.777344 86.128906 158.757812 C 86.128906 158.757812 84.878906 158.617188 83.285156 158.523438 C 82.683594 158.472656 82.03125 158.449219 81.382812 158.449219 C 80.726562 158.453125 80.082031 158.496094 79.472656 158.546875 C 77.847656 158.664062 76.605469 158.84375 76.605469 158.84375 C 76.414062 158.835938 76.261719 158.988281 76.253906 159.167969 C 76.246094 159.359375 76.398438 159.511719 76.578125 159.519531 Z M 76.582031 159.496094 " fill-opacity="1" fill-rule="evenodd"/><path fill="rgb(0%, 0%, 0%)" d="M 71.265625 165.613281 C 71.265625 165.613281 73.128906 165.90625 75.535156 166.1875 C 76.441406 166.28125 77.410156 166.398438 78.386719 166.460938 C 79.367188 166.535156 80.34375 166.558594 81.246094 166.558594 C 83.652344 166.605469 85.539062 166.605469 85.539062 166.605469 C 85.96875 166.621094 86.328125 166.289062 86.347656 165.859375 C 86.363281 165.429688 86.027344 165.070312 85.597656 165.054688 C 85.597656 165.054688 83.71875 164.886719 81.316406 164.757812 C 80.414062 164.710938 79.4375 164.640625 78.457031 164.640625 C 77.476562 164.628906 76.5 164.660156 75.59375 164.6875 C 73.171875 164.78125 71.292969 164.929688 71.292969 164.929688 C 71.101562 164.921875 70.945312 165.070312 70.941406 165.253906 C 70.933594 165.441406 71.082031 165.59375 71.265625 165.601562 Z M 71.265625 165.613281 " fill-opacity="1" fill-rule="evenodd"/><path fill="rgb(0%, 0%, 0%)" d="M 67.414062 170.246094 C 67.414062 170.246094 69.542969 170.550781 72.292969 170.84375 C 73.320312 170.964844 74.429688 171.058594 75.546875 171.136719 C 76.660156 171.210938 77.777344 171.234375 78.8125 171.257812 C 81.554688 171.328125 83.710938 171.328125 83.710938 171.328125 C 84.140625 171.34375 84.503906 171.011719 84.519531 170.582031 C 84.535156 170.152344 84.199219 169.792969 83.769531 169.777344 C 83.769531 169.777344 81.621094 169.609375 78.878906 169.457031 C 77.847656 169.410156 76.730469 169.339844 75.617188 169.316406 C 74.5 169.300781 73.382812 169.324219 72.347656 169.363281 C 69.585938 169.433594 67.4375 169.578125 67.4375 169.578125 C 67.246094 169.570312 67.09375 169.71875 67.085938 169.902344 C 67.078125 170.09375 67.230469 170.246094 67.410156 170.253906 Z M 67.414062 170.246094 " fill-opacity="1" fill-rule="evenodd"/><path fill="rgb(0%, 0%, 0%)" d="M 65.871094 175.648438 C 65.871094 175.648438 68.003906 175.953125 70.75 176.246094 C 71.78125 176.367188 72.890625 176.460938 74.007812 176.539062 C 75.121094 176.609375 76.238281 176.636719 77.269531 176.660156 C 80.015625 176.730469 82.171875 176.730469 82.171875 176.730469 C 82.601562 176.746094 82.964844 176.414062 82.976562 175.984375 C 82.996094 175.554688 82.660156 175.195312 82.230469 175.179688 C 82.230469 175.179688 80.082031 175.011719 77.339844 174.859375 C 76.308594 174.8125 75.191406 174.742188 74.078125 174.714844 C 72.960938 174.699219 71.84375 174.726562 70.808594 174.765625 C 68.046875 174.835938 65.898438 174.980469 65.898438 174.980469 C 65.707031 174.972656 65.554688 175.121094 65.546875 175.304688 C 65.539062 175.492188 65.6875 175.644531 65.871094 175.65625 Z M 65.871094 175.648438 " fill-opacity="1" fill-rule="evenodd"/><path fill="rgb(0%, 0%, 0%)" d="M 94.695312 153.242188 C 95.203125 152.066406 96.375 151.316406 97.65625 151.339844 C 104.085938 151.433594 123.496094 151.777344 129.726562 151.886719 C 130.953125 151.90625 132.054688 152.628906 132.5625 153.738281 C 135.816406 161.0625 136.550781 168.519531 137.625 176.054688 C 137.769531 176.964844 137.507812 177.890625 136.894531 178.589844 C 136.292969 179.289062 135.417969 179.691406 134.492188 179.691406 C 125.289062 179.691406 101.457031 179.691406 92.941406 179.691406 C 91.195312 179.691406 89.777344 178.289062 89.765625 176.550781 C 89.789062 168.4375 91.511719 160.683594 94.695312 153.242188 Z M 94.695312 153.242188 " fill-opacity="1" fill-rule="evenodd"/><path fill="rgb(3.138733%, 0%, 0%)" d="M 234.253906 191.0625 C 234.253906 191.0625 235.578125 191.273438 237.304688 191.433594 C 237.945312 191.503906 238.636719 191.550781 239.335938 191.574219 C 240.027344 191.59375 240.722656 191.566406 241.363281 191.550781 C 243.070312 191.503906 244.40625 191.386719 244.40625 191.386719 C 244.835938 191.378906 245.179688 191.027344 245.171875 190.601562 C 245.167969 190.171875 244.816406 189.828125 244.386719 189.832031 C 244.386719 189.832031 243.046875 189.761719 241.339844 189.738281 C 240.699219 189.730469 240.003906 189.71875 239.3125 189.753906 C 238.613281 189.777344 237.925781 189.875 237.285156 189.945312 C 235.5625 190.160156 234.246094 190.390625 234.246094 190.390625 C 234.058594 190.390625 233.910156 190.554688 233.914062 190.730469 C 233.917969 190.921875 234.082031 191.066406 234.257812 191.066406 Z M 234.253906 191.0625 " fill-opacity="1" fill-rule="evenodd"/><path fill="rgb(3.138733%, 0%, 0%)" d="M 224.605469 190.386719 C 224.605469 190.386719 223.292969 190.144531 221.570312 189.941406 C 220.925781 189.871094 220.238281 189.796875 219.542969 189.75 C 218.851562 189.726562 218.15625 189.726562 217.515625 189.734375 C 215.804688 189.753906 214.46875 189.828125 214.46875 189.828125 C 214.039062 189.824219 213.683594 190.167969 213.679688 190.597656 C 213.675781 191.023438 214.019531 191.375 214.449219 191.378906 C 214.449219 191.378906 215.785156 191.476562 217.492188 191.546875 C 218.132812 191.570312 218.828125 191.59375 219.519531 191.570312 C 220.21875 191.550781 220.910156 191.5 221.550781 191.425781 C 223.277344 191.261719 224.597656 191.054688 224.597656 191.054688 C 224.789062 191.058594 224.941406 190.914062 224.941406 190.722656 C 224.945312 190.53125 224.800781 190.382812 224.609375 190.378906 Z M 224.605469 190.386719 " fill-opacity="1" fill-rule="evenodd"/><path fill="rgb(3.138733%, 0%, 0%)" d="M 83.710938 190.386719 L 77.605469 190.765625 C 76.101562 190.882812 74.699219 191.328125 73.46875 192.046875 C 72.621094 192.542969 71.855469 193.171875 71.207031 193.90625 C 69.621094 195.703125 68.730469 198.101562 68.796875 200.660156 L 68.964844 205.03125 C 68.972656 205.460938 69.328125 205.800781 69.757812 205.792969 C 70.1875 205.785156 70.527344 205.433594 70.523438 205.003906 L 70.53125 200.628906 C 70.507812 198.527344 71.308594 196.605469 72.597656 195.113281 C 73.121094 194.503906 73.71875 193.960938 74.390625 193.507812 C 75.382812 192.84375 76.515625 192.34375 77.769531 192.140625 L 83.789062 191.058594 C 83.980469 191.035156 84.105469 190.867188 84.085938 190.679688 C 84.0625 190.492188 83.894531 190.363281 83.707031 190.386719 Z M 83.710938 190.386719 " fill-opacity="1" fill-rule="evenodd"/><path fill="rgb(100%, 88.62915%, 46.669006%)" d="M 233.386719 114.378906 C 233.121094 113.664062 232.4375 113.1875 231.671875 113.1875 C 223.714844 113.175781 142.585938 113.175781 134.417969 113.175781 C 133.613281 113.175781 132.90625 113.695312 132.664062 114.460938 C 131.503906 118.339844 131.550781 122.304688 132.691406 126.347656 C 132.929688 127.125 133.632812 127.664062 134.449219 127.664062 C 142.707031 127.671875 223.730469 127.671875 231.667969 127.671875 C 232.433594 127.671875 233.121094 127.195312 233.390625 126.476562 C 234.84375 122.441406 234.832031 118.410156 233.375 114.378906 Z M 233.386719 114.378906 " fill-opacity="1" fill-rule="evenodd"/><path fill="rgb(0%, 0%, 0%)" d="M 216.109375 115.585938 L 217.554688 115.585938 L 217.554688 117.871094 L 216.109375 117.871094 " fill-opacity="1" fill-rule="evenodd"/><path fill="rgb(0%, 0%, 0%)" d="M 153.644531 115.585938 L 155.09375 115.585938 L 155.09375 117.871094 L 153.644531 117.871094 " fill-opacity="1" fill-rule="evenodd"/><path fill="rgb(0%, 0%, 0%)" d="M 131.816406 119.996094 C 135.753906 119.921875 142.121094 119.78125 149.433594 119.675781 C 154.03125 119.605469 159 119.535156 163.96875 119.511719 C 168.9375 119.484375 211.085938 119.503906 215.683594 119.515625 C 223.761719 119.542969 230.695312 119.589844 234.460938 119.613281 C 234.484375 120.144531 234.484375 120.683594 234.464844 121.214844 C 230.699219 121.238281 223.765625 121.289062 215.683594 121.3125 C 211.085938 121.328125 168.9375 121.335938 163.96875 121.320312 C 159 121.292969 154.03125 121.222656 149.433594 121.152344 C 142.128906 121.03125 135.761719 120.914062 131.824219 120.835938 C 131.816406 120.546875 131.8125 120.261719 131.816406 119.976562 Z M 131.816406 119.996094 " fill-opacity="1" fill-rule="evenodd"/><path fill="rgb(0%, 0%, 0%)" d="M 233.921875 124.789062 C 233.777344 125.351562 233.601562 125.910156 233.398438 126.472656 C 233.132812 127.195312 232.445312 127.671875 231.675781 127.667969 L 229.632812 127.667969 C 229.585938 127.597656 229.539062 127.550781 229.492188 127.476562 C 229.09375 126.878906 229.019531 126.121094 229.300781 125.460938 C 229.582031 124.796875 230.175781 124.320312 230.886719 124.1875 C 231.949219 124.019531 232.964844 124.191406 233.921875 124.792969 Z M 233.921875 124.789062 " fill-opacity="1" fill-rule="evenodd"/><path fill="rgb(0%, 0%, 0%)" d="M 229.539062 113.1875 C 230.40625 113.1875 231.125 113.1875 231.671875 113.1875 C 232.433594 113.1875 233.117188 113.660156 233.382812 114.375 C 233.574219 114.90625 233.742188 115.433594 233.882812 115.964844 C 232.933594 116.550781 231.929688 116.714844 230.882812 116.550781 C 230.171875 116.40625 229.578125 115.941406 229.296875 115.277344 C 229.015625 114.613281 229.082031 113.859375 229.488281 113.257812 C 229.503906 113.234375 229.511719 113.210938 229.535156 113.1875 Z M 229.539062 113.1875 " fill-opacity="1" fill-rule="evenodd"/><path fill="rgb(0%, 0%, 0%)" d="M 136.613281 113.175781 C 136.988281 113.765625 137.046875 114.503906 136.78125 115.148438 C 136.5 115.8125 135.90625 116.289062 135.199219 116.421875 C 134.183594 116.589844 133.21875 116.433594 132.292969 115.894531 C 132.414062 115.417969 132.53125 114.9375 132.667969 114.457031 C 132.90625 113.691406 133.621094 113.171875 134.421875 113.171875 Z M 136.613281 113.175781 " fill-opacity="1" fill-rule="evenodd"/><path fill="rgb(0%, 0%, 0%)" d="M 132.363281 125.035156 C 133.273438 124.511719 134.230469 124.371094 135.230469 124.53125 C 135.9375 124.671875 136.535156 125.140625 136.8125 125.800781 C 137.070312 126.40625 137.027344 127.089844 136.71875 127.664062 C 135.804688 127.664062 135.039062 127.660156 134.457031 127.660156 C 133.640625 127.660156 132.925781 127.125 132.695312 126.34375 C 132.578125 125.90625 132.457031 125.46875 132.363281 125.035156 Z M 132.363281 125.035156 " fill-opacity="1" fill-rule="evenodd"/><path fill="rgb(9.01947%, 0%, 0%)" d="M 60.996094 184.773438 L 263.667969 184.773438 C 270.609375 184.773438 277.480469 186.109375 283.914062 188.707031 L 314.164062 200.925781 L 314.164062 203.269531 L 283.097656 190.722656 C 280.011719 189.472656 276.820312 188.53125 273.566406 187.898438 C 270.3125 187.265625 266.996094 186.945312 263.667969 186.945312 L 60.988281 186.945312 L 60.988281 185.617188 C 60.988281 185.335938 60.992188 185.054688 60.996094 184.773438 Z M 60.996094 184.773438 " fill-opacity="1" fill-rule="evenodd"/><path fill="rgb(0%, 0%, 0%)" d="M 157.414062 121.277344 C 157.671875 121.28125 157.933594 121.28125 158.191406 121.285156 L 158.429688 123.890625 C 159.207031 123.84375 160.753906 123.746094 162.574219 123.675781 C 163.558594 123.628906 164.621094 123.605469 165.691406 123.582031 C 166.753906 123.5625 205 123.5625 205.984375 123.566406 C 207.589844 123.570312 208.980469 123.585938 209.820312 123.589844 L 209.867188 121.335938 C 210.402344 121.335938 210.933594 121.335938 211.460938 121.332031 L 211.535156 124.460938 L 211.535156 125.320312 L 210.675781 125.324219 C 210.675781 125.324219 208.617188 125.371094 206 125.394531 C 205.011719 125.402344 166.769531 125.410156 165.703125 125.394531 C 164.636719 125.378906 163.574219 125.347656 162.585938 125.300781 C 159.960938 125.203125 157.910156 125.085938 157.910156 125.085938 L 157.339844 125.085938 Z M 157.414062 121.277344 " fill-opacity="1" fill-rule="evenodd"/><path fill="rgb(0%, 0%, 0%)" d="M 230.328125 230.371094 C 230.328125 230.371094 237.894531 230.5625 247.097656 230.75 C 250.691406 230.824219 254.535156 230.894531 258.277344 230.941406 C 261.539062 230.988281 264.722656 231.011719 267.59375 231.039062 C 271.464844 231.058594 274.761719 231.042969 276.910156 231.042969 C 277.527344 231.039062 278.121094 231.210938 278.632812 231.507812 C 279.144531 231.8125 279.578125 232.25 279.871094 232.792969 L 285.894531 243.847656 C 286.375 244.730469 287.070312 245.457031 287.902344 245.972656 C 288.726562 246.484375 289.683594 246.789062 290.6875 246.828125 L 294.4375 246.96875 C 294.9375 246.992188 295.363281 246.605469 295.386719 246.105469 C 295.410156 245.609375 295.023438 245.183594 294.519531 245.160156 L 290.773438 244.945312 C 290.101562 244.898438 289.46875 244.695312 288.921875 244.347656 C 288.378906 244 287.925781 243.511719 287.617188 242.921875 L 281.730469 231.796875 C 281.257812 230.90625 280.558594 230.183594 279.726562 229.679688 C 278.890625 229.179688 277.921875 228.898438 276.910156 228.894531 C 274.761719 228.894531 271.464844 228.878906 267.59375 228.902344 C 264.722656 228.917969 261.539062 228.949219 258.277344 228.996094 C 254.535156 229.042969 250.691406 229.117188 247.097656 229.1875 C 237.894531 229.378906 230.328125 229.570312 230.328125 229.570312 C 230.113281 229.570312 229.933594 229.734375 229.933594 229.960938 C 229.933594 230.175781 230.101562 230.359375 230.328125 230.359375 Z M 230.328125 230.371094 " fill-opacity="1" fill-rule="evenodd"/><path fill="rgb(0%, 0%, 0%)" d="M 224.617188 242.691406 L 224.3125 248.367188 C 224.289062 248.871094 224.0625 249.320312 223.734375 249.660156 C 223.417969 249.988281 222.980469 250.191406 222.496094 250.234375 C 220.074219 250.472656 217.664062 250.566406 215.253906 250.648438 C 212.832031 250.71875 210.417969 250.746094 208.007812 250.71875 C 203.164062 250.648438 161.160156 250.347656 156.351562 249.722656 C 155.855469 249.652344 155.398438 250 155.324219 250.496094 C 155.253906 250.988281 155.601562 251.445312 156.097656 251.515625 C 160.96875 252.261719 203.042969 252.773438 207.96875 252.863281 C 210.425781 252.914062 212.890625 252.859375 215.359375 252.675781 C 217.804688 252.507812 220.246094 252.1875 222.695312 251.804688 C 223.554688 251.660156 224.300781 251.234375 224.8125 250.609375 C 225.316406 249.996094 225.621094 249.21875 225.597656 248.375 L 225.40625 242.691406 C 225.410156 242.476562 225.238281 242.296875 225.011719 242.292969 C 224.796875 242.292969 224.617188 242.460938 224.613281 242.683594 Z M 224.617188 242.691406 " fill-opacity="1" fill-rule="evenodd"/><path fill="rgb(0%, 0%, 0%)" d="M 119.839844 225.1875 C 119.839844 225.1875 122.371094 225.425781 125.445312 226.628906 C 126.53125 227.058594 127.671875 227.621094 128.820312 228.320312 C 129.828125 228.933594 130.839844 229.652344 131.777344 230.550781 C 133.011719 231.734375 134.148438 233.195312 134.984375 235.074219 C 135.175781 235.535156 135.707031 235.753906 136.171875 235.5625 C 136.632812 235.371094 136.851562 234.839844 136.660156 234.375 C 135.816406 232.195312 134.636719 230.433594 133.265625 229.046875 C 132.21875 227.988281 131.074219 227.128906 129.886719 226.480469 C 128.578125 225.765625 127.234375 225.289062 125.976562 224.972656 C 122.558594 224.109375 119.832031 224.398438 119.832031 224.398438 C 119.617188 224.398438 119.4375 224.589844 119.441406 224.796875 C 119.441406 225.007812 119.632812 225.1875 119.84375 225.1875 Z M 119.839844 225.1875 " fill-opacity="1" fill-rule="evenodd"/><path fill="rgb(0%, 0%, 0%)" d="M 119.9375 219.382812 C 119.9375 219.382812 121.019531 219.289062 122.851562 219.734375 C 123.414062 219.878906 124.03125 220.0625 124.730469 220.3125 C 125.082031 220.433594 125.441406 220.585938 125.828125 220.738281 C 126.34375 220.929688 126.886719 221.160156 127.464844 221.417969 C 128.660156 221.957031 129.992188 222.628906 131.398438 223.582031 C 131.800781 223.875 132.371094 223.796875 132.667969 223.390625 C 132.960938 222.988281 132.882812 222.417969 132.476562 222.125 C 131.296875 221.191406 130.179688 220.4375 129.109375 219.859375 C 128.230469 219.386719 127.394531 219.011719 126.597656 218.761719 C 125.601562 218.445312 124.691406 218.289062 123.886719 218.222656 C 121.222656 218.007812 119.742188 218.625 119.742188 218.625 C 119.53125 218.675781 119.40625 218.898438 119.460938 219.109375 C 119.511719 219.320312 119.734375 219.445312 119.945312 219.390625 Z M 119.9375 219.382812 " fill-opacity="1" fill-rule="evenodd"/><path fill="rgb(0%, 0%, 0%)" d="M 89.125 147.0625 C 89.125 147.0625 99.089844 147.230469 111.785156 147.339844 C 116.5625 147.386719 121.726562 147.433594 126.890625 147.433594 C 132.054688 147.441406 137.21875 147.410156 141.996094 147.386719 C 154.691406 147.316406 164.65625 147.21875 164.65625 147.21875 C 165.015625 147.21875 165.304688 146.929688 165.304688 146.570312 C 165.304688 146.214844 165.011719 145.925781 164.652344 145.925781 C 164.652344 145.925781 154.6875 145.878906 141.996094 145.878906 C 137.21875 145.878906 132.050781 145.878906 126.886719 145.925781 C 121.722656 145.972656 116.558594 146.042969 111.78125 146.117188 C 99.089844 146.304688 89.125 146.523438 89.125 146.523438 C 88.957031 146.523438 88.84375 146.640625 88.84375 146.808594 C 88.84375 146.972656 88.960938 147.089844 89.125 147.089844 Z M 89.125 147.0625 " fill-opacity="1" fill-rule="evenodd"/><path fill="rgb(0%, 0%, 0%)" d="M 145.234375 255.0625 L 145.234375 255.058594 C 145.234375 255.058594 145.1875 249.785156 145.140625 241.523438 C 145.117188 235.898438 145.070312 228.894531 145.042969 221.21875 C 145.035156 216.878906 145.042969 212.324219 145.058594 207.683594 C 145.070312 204.699219 145.082031 201.679688 145.105469 198.660156 C 145.128906 195.644531 145.179688 192.625 145.226562 189.640625 C 145.296875 185 145.394531 180.449219 145.492188 176.105469 C 145.914062 157.152344 146.328125 142.277344 146.328125 142.277344 C 146.328125 142.207031 146.398438 142.132812 146.472656 142.132812 C 146.542969 142.136719 146.613281 142.207031 146.613281 142.277344 C 146.613281 142.277344 146.78125 157.160156 146.902344 176.117188 C 146.925781 180.457031 146.949219 185.011719 146.949219 189.652344 C 146.949219 192.636719 146.949219 195.65625 146.933594 198.675781 C 146.914062 201.695312 146.886719 204.710938 146.835938 207.699219 C 146.789062 212.335938 146.71875 216.890625 146.621094 221.230469 C 146.480469 228.902344 146.328125 235.90625 146.203125 241.527344 C 146.011719 249.683594 145.890625 254.921875 145.882812 255.058594 Z M 145.234375 255.0625 " fill-opacity="1" fill-rule="evenodd"/><path fill="rgb(0%, 0%, 0%)" d="M 229.082031 255.0625 C 229.082031 255.058594 229.082031 255.058594 229.082031 255.058594 C 229.082031 255.058594 229.035156 249.785156 228.984375 241.523438 C 228.960938 235.898438 228.914062 228.894531 228.890625 221.21875 C 228.882812 216.878906 228.886719 212.324219 228.90625 207.683594 C 228.917969 204.699219 228.929688 201.679688 228.953125 198.660156 C 228.976562 195.644531 229.023438 192.625 229.070312 189.640625 C 229.144531 185 229.238281 180.449219 229.339844 176.109375 C 229.757812 157.15625 230.171875 142.277344 230.171875 142.277344 C 230.171875 142.207031 230.246094 142.132812 230.316406 142.132812 C 230.386719 142.136719 230.460938 142.207031 230.460938 142.277344 C 230.460938 142.277344 230.628906 157.160156 230.742188 176.117188 C 230.769531 180.457031 230.789062 185.011719 230.789062 189.652344 C 230.792969 192.636719 230.792969 195.65625 230.777344 198.675781 C 230.757812 201.695312 230.726562 204.710938 230.679688 207.699219 C 230.632812 212.335938 230.5625 216.890625 230.464844 221.230469 C 230.320312 228.902344 230.167969 235.90625 230.046875 241.527344 C 229.878906 249.683594 229.730469 254.921875 229.726562 255.058594 Z M 229.082031 255.0625 " fill-opacity="1" fill-rule="evenodd"/><path fill="rgb(3.138733%, 0%, 0%)" d="M 292.941406 255.0625 C 292.941406 255.035156 292.945312 255.011719 292.949219 254.964844 C 294.679688 239.621094 296.550781 223.855469 297.347656 208.234375 C 297.617188 203.007812 297.765625 197.796875 297.75 192.625 C 297.738281 187.386719 297.582031 182.183594 297.160156 177.042969 C 297.089844 176.027344 296.898438 175.023438 296.621094 174.050781 C 296.339844 173.074219 295.964844 172.125 295.503906 171.226562 C 293.136719 166.824219 290.144531 162.710938 286.8125 158.734375 C 282.003906 153 276.96875 148.128906 271.507812 142.53125 C 271.390625 142.386719 271.390625 142.183594 271.511719 142.054688 C 271.652344 141.910156 271.855469 141.910156 271.988281 142.054688 C 277.597656 147.542969 282.785156 152.300781 287.730469 157.949219 C 291.214844 161.925781 294.335938 166.0625 296.839844 170.511719 C 297.375 171.5 297.804688 172.535156 298.132812 173.605469 C 298.453125 174.675781 298.675781 175.78125 298.785156 176.902344 C 299.261719 182.085938 299.523438 187.332031 299.570312 192.613281 C 299.617188 197.824219 299.472656 203.070312 299.191406 208.328125 C 298.359375 223.957031 296.332031 239.714844 294.503906 255.054688 Z M 292.941406 255.0625 " fill-opacity="1" fill-rule="evenodd"/><g clip-path="url(#clip-2)"><path fill="rgb(100%, 48.239136%, 40.388489%)" d="M 222.355469 101.082031 C 222.355469 100.328125 222.054688 99.601562 221.519531 99.066406 C 220.984375 98.53125 220.257812 98.234375 219.496094 98.234375 C 212.453125 98.234375 157.136719 98.234375 150.089844 98.234375 C 149.332031 98.234375 148.605469 98.53125 148.070312 99.066406 C 147.535156 99.601562 147.234375 100.328125 147.234375 101.082031 C 147.234375 105.417969 147.234375 113.175781 147.234375 113.175781 L 222.355469 113.175781 Z M 222.355469 101.082031 " fill-opacity="1" fill-rule="evenodd"/></g><path fill="rgb(20.388794%, 21.958923%, 23.139954%)" d="M 146.765625 106.0625 L 222.355469 106.0625 L 222.355469 107.183594 L 146.765625 107.183594 " fill-opacity="1" fill-rule="evenodd"/><g clip-path="url(#clip-3)"><path fill="rgb(0%, 0%, 0%)" d="M 214.378906 98.265625 C 214.378906 98.265625 215.433594 101.902344 216.609375 107.457031 C 217.003906 109.324219 217.414062 111.410156 217.800781 113.644531 C 218.148438 115.621094 218.476562 117.710938 218.765625 119.875 C 218.957031 121.238281 219.121094 122.628906 219.269531 124.042969 C 219.570312 126.90625 219.777344 129.84375 219.835938 132.761719 C 219.882812 135.722656 219.8125 138.664062 219.503906 141.484375 C 219.484375 141.628906 219.597656 141.753906 219.738281 141.769531 C 219.882812 141.785156 220.011719 141.675781 220.027344 141.53125 C 220.511719 137.292969 220.535156 132.792969 220.265625 128.351562 C 220.074219 125.375 219.765625 122.425781 219.367188 119.609375 C 218.929688 116.527344 218.390625 113.601562 217.839844 110.957031 C 216.28125 103.429688 214.613281 98.191406 214.613281 98.191406 C 214.597656 98.121094 214.542969 98.09375 214.46875 98.121094 C 214.421875 98.136719 214.375 98.191406 214.398438 98.261719 Z M 214.378906 98.265625 " fill-opacity="1" fill-rule="evenodd"/></g><g clip-path="url(#clip-4)"><path fill="rgb(0%, 0%, 0%)" d="M 155.671875 98.265625 C 155.671875 98.265625 154.617188 101.902344 153.441406 107.457031 C 153.046875 109.324219 152.636719 111.410156 152.246094 113.644531 C 151.902344 115.621094 151.574219 117.710938 151.285156 119.875 C 151.09375 121.238281 150.929688 122.628906 150.785156 124.042969 C 150.484375 126.90625 150.277344 129.84375 150.21875 132.761719 C 150.171875 135.722656 150.242188 138.664062 150.550781 141.484375 C 150.566406 141.628906 150.457031 141.753906 150.3125 141.769531 C 150.167969 141.785156 150.042969 141.675781 150.027344 141.53125 C 149.539062 137.292969 149.519531 132.792969 149.785156 128.351562 C 149.976562 125.375 150.289062 122.425781 150.6875 119.609375 C 151.125 116.527344 151.660156 113.601562 152.210938 110.957031 C 153.769531 103.429688 155.441406 98.191406 155.441406 98.191406 C 155.457031 98.121094 155.511719 98.09375 155.582031 98.121094 C 155.632812 98.136719 155.679688 98.191406 155.65625 98.261719 Z M 155.671875 98.265625 " fill-opacity="1" fill-rule="evenodd"/></g><path fill="rgb(0%, 0%, 0%)" d="M 314.203125 255.0625 L 286.324219 255.0625 C 284.527344 254.222656 283.050781 252.757812 282.226562 250.871094 C 279.796875 245.320312 276.195312 237.101562 276.195312 237.101562 C 275.195312 234.816406 272.933594 233.34375 270.4375 233.34375 C 264.507812 233.34375 253.617188 233.34375 247.6875 233.34375 C 245.1875 233.34375 242.929688 234.816406 241.929688 237.101562 C 241.929688 237.101562 238.328125 245.320312 235.898438 250.871094 C 235.117188 252.65625 233.757812 254.066406 232.089844 254.921875 C 231.921875 255.015625 231.714844 255.0625 231.515625 255.0625 C 227.355469 255.066406 142.226562 255.066406 142.226562 255.066406 C 140.375 254.214844 138.851562 252.707031 138.003906 250.769531 C 135.570312 245.222656 132.019531 237.109375 132.019531 237.109375 C 131.019531 234.824219 128.757812 233.347656 126.261719 233.347656 C 120.332031 233.347656 109.441406 233.347656 103.511719 233.347656 C 101.011719 233.347656 98.753906 234.824219 97.753906 237.109375 C 97.753906 237.109375 94.199219 245.222656 91.769531 250.769531 C 90.921875 252.710938 89.398438 254.214844 87.546875 255.066406 L 61.027344 255.066406 L 60.785156 185.625 L 60.789062 185.203125 L 60.792969 185.011719 L 60.792969 185.035156 C 60.792969 184.941406 60.796875 184.867188 60.796875 184.78125 L 60.804688 184.5 C 60.996094 178.578125 62.894531 172.792969 65.890625 167.664062 C 72.046875 157.28125 79.917969 147.664062 89.171875 138.675781 C 96.355469 131.640625 106.023438 127.699219 116.09375 127.699219 C 142.9375 127.679688 236.695312 127.679688 259.121094 127.679688 C 266.191406 127.679688 273.046875 130.109375 278.535156 134.558594 C 293.335938 147.179688 311.09375 169.386719 314.203125 179.199219 Z M 313.390625 179.324219 C 311.90625 174.824219 307.339844 167.765625 301.429688 160.246094 C 294.515625 151.445312 285.753906 142.035156 277.871094 135.363281 C 275.214844 133.226562 272.230469 131.578125 269.058594 130.46875 C 265.890625 129.355469 262.53125 128.785156 259.125 128.796875 C 259.125 128.796875 116.097656 129.214844 116.097656 129.214844 C 111.261719 129.222656 106.527344 130.179688 102.140625 131.976562 C 97.753906 133.769531 93.714844 136.40625 90.265625 139.785156 C 85.765625 144.164062 81.597656 148.691406 77.792969 153.382812 C 73.871094 158.222656 70.339844 163.238281 67.25 168.445312 C 65.8125 170.890625 64.695312 173.5 63.914062 176.199219 C 63.132812 178.90625 62.683594 181.707031 62.589844 184.53125 C 62.589844 184.53125 62.582031 184.8125 62.582031 184.808594 L 62.574219 185.050781 L 62.574219 185.097656 C 62.574219 185.097656 62.574219 185.214844 62.574219 185.191406 C 62.574219 185.191406 62.570312 185.261719 62.570312 185.285156 L 62.570312 185.335938 C 62.570312 185.335938 62.570312 185.359375 62.570312 185.382812 L 62.570312 185.621094 L 62.425781 253.675781 L 87.253906 253.746094 C 87.949219 253.398438 88.582031 252.941406 89.128906 252.386719 C 89.734375 251.78125 90.234375 251.058594 90.59375 250.246094 L 96.625 236.601562 C 97.226562 235.242188 98.203125 234.117188 99.40625 233.339844 C 100.601562 232.5625 102.023438 232.125 103.515625 232.128906 L 126.265625 232.226562 C 127.734375 232.230469 129.132812 232.667969 130.308594 233.445312 C 131.484375 234.214844 132.4375 235.324219 133.019531 236.667969 L 138.945312 250.355469 C 139.3125 251.199219 139.824219 251.957031 140.445312 252.59375 C 141.03125 253.191406 141.714844 253.691406 142.464844 254.066406 L 231.519531 254.488281 C 231.519531 254.488281 231.835938 254.414062 231.832031 254.414062 C 232.617188 254.015625 233.332031 253.484375 233.945312 252.84375 C 234.542969 252.214844 235.039062 251.476562 235.40625 250.65625 L 241.503906 236.914062 C 242.046875 235.691406 242.925781 234.6875 244.003906 233.988281 C 245.082031 233.296875 246.355469 232.90625 247.691406 232.914062 L 270.441406 233.03125 C 271.746094 233.039062 272.992188 233.429688 274.039062 234.121094 C 275.082031 234.808594 275.925781 235.792969 276.445312 236.988281 L 282.398438 250.792969 C 282.792969 251.707031 283.347656 252.523438 284.011719 253.214844 C 284.699219 253.921875 285.503906 254.496094 286.324219 254.902344 L 313.730469 255.046875 Z M 313.390625 179.324219 " fill-opacity="1" fill-rule="evenodd"/></svg>